<svg xmlns="http://www.w3.org/2000/svg" xmlns:xlink="http://www.w3.org/1999/xlink" aria-hidden="true" role="img" preserveAspectRatio="xMidYMid meet" viewBox="0 0 24 24">
    <symbol id="delete">
        <path fill="currentColor" d="M6 19c0 1.1.9 2 2 2h8c1.1 0 2-.9 2-2V9c0-1.1-.9-2-2-2H8c-1.1 0-2 .9-2 2v10zM18 4h-2.5l-.71-.71c-.18-.18-.44-.29-.7-.29H9.91c-.26 0-.52.11-.7.29L8.5 4H6c-.55 0-1 .45-1 1s.45 1 1 1h12c.55 0 1-.45 1-1s-.45-1-1-1z"></path>
    </symbol>
    <symbol id="plus">
        <path fill="currentColor" d="M18 12.998h-5v5a1 1 0 0 1-2 0v-5H6a1 1 0 0 1 0-2h5v-5a1 1 0 0 1 2 0v5h5a1 1 0 0 1 0 2z"></path>
    </symbol>
    <symbol id="eye">
        <path fill="currentColor" d="M12 4.5C7 4.5 2.73 7.61 1 12c1.73 4.39 6 7.5 11 7.5s9.27-3.11 11-7.5c-1.73-4.39-6-7.5-11-7.5zM12 17c-2.76 0-5-2.24-5-5s2.24-5 5-5s5 2.24 5 5s-2.24 5-5 5zm0-8c-1.66 0-3 1.34-3 3s1.34 3 3 3s3-1.34 3-3s-1.34-3-3-3z"></path>
    </symbol>
</svg>